<svg xmlns="http://www.w3.org/2000/svg" class="ionicon" viewBox="0 0 512 512">
  <!-- Flag pole -->
  <path d="M80 464V68.14a8 8 0 014-6.9C91.81 56.66 112.92 48 160 48c64 0 145 48 192 48a199.53 199.53 0 0077.23-15.77 2 2 0 012.77 1.85v219.36a4 4 0 01-2.39 3.65C421.37 308.7 392.33 320 352 320c-48 0-128-32-192-32s-80 16-80 16" 
        stroke="#6c757d" 
        stroke-width="24" 
        fill="none" 
        stroke-linecap="round" 
        stroke-linejoin="round"/>
  
  <!-- Flag outline - complete rectangle -->
  <path d="M80 68h200a40 40 0 0140 40v200a40 40 0 01-40 40H80V68z" 
        stroke="#6c757d" 
        stroke-width="24" 
        fill="none" 
        stroke-linecap="round" 
        stroke-linejoin="round"/>
  
  <!-- Flag pole base -->
  <circle cx="80" cy="464" r="8" fill="#6c757d"/>
</svg>

